<svg viewBox="0 0 92 15" fill="none" xmlns="http://www.w3.org/2000/svg">
    <path d="M0.304337 4.54463C0.340002 4.4198 0.375668 4.29497 0.429167 4.18797C0.357835 4.29497 0.322169 4.4198 0.304337 4.54463ZM4.70906 0.942389C4.86955 0.924556 5.01222 0.924555 5.17271 0.924555C5.20838 0.924555 5.24404 0.924555 5.27971 0.924555C5.08355 0.906722 4.90522 0.906723 4.70906 0.942389ZM8.52529 2.17286C8.65012 2.29769 8.79279 2.40468 8.89978 2.54735C8.79279 2.40468 8.66796 2.27985 8.52529 2.17286Z"
          fill="#1B70F1"/>
    <path d="M7.70499 7.46946L9.57744 8.55727C8.66796 10.1266 6.99167 11.1074 5.17272 11.1074C2.37296 11.1074 0.0903473 8.80693 0.0903473 6.025C0.0903473 5.52568 0.161679 5.02636 0.304342 4.5627C0.340008 4.43787 0.375673 4.31304 0.429172 4.20605C0.554002 3.99205 0.732331 3.79589 0.999824 3.68889C1.12465 3.63539 1.24948 3.59973 1.37431 3.56406C1.48131 2.65458 2.08763 2.24443 2.89011 2.04827C3.01494 2.0126 3.1576 1.94127 3.24677 1.83427C3.69259 1.35278 4.19191 1.04962 4.70906 0.960458C4.86956 0.942625 5.01222 0.942627 5.17272 0.942627C5.20838 0.942627 5.24405 0.942627 5.27972 0.942627C5.7612 0.996126 6.26052 1.21012 6.72418 1.62028C6.83118 1.70944 7.0095 1.76294 7.15217 1.76294C7.70499 1.78077 8.16864 1.92344 8.5253 2.19093C8.65013 2.31576 8.79279 2.42275 8.89979 2.56542C9.14945 2.85074 9.38128 3.15391 9.57744 3.49273L9.36344 3.61756L8.29347 4.24171C8.07948 4.22388 7.86548 4.17038 7.65149 4.15255C7.56232 4.13471 7.47316 4.13471 7.384 4.15255C7.277 4.02772 7.17 3.92072 7.04517 3.81372C7.2235 3.77805 7.43749 3.77806 7.65149 3.79589C7.97248 3.83155 8.11514 3.67106 7.97248 3.3679C7.90115 3.18957 7.77632 3.02907 7.66932 2.83291C8.07948 2.95774 8.11514 2.97558 8.4183 3.56406C8.5253 3.76022 8.66796 3.92072 8.86412 3.79589C8.98895 3.72456 9.07812 3.4749 9.04245 3.3144C8.93546 2.69025 7.99031 2.03043 7.36616 2.1196C7.277 2.13743 7.13433 2.28009 7.13433 2.36926C7.13433 3.2074 7.13434 3.2074 6.40319 3.3679L6.38535 3.38573C6.27836 3.33223 6.15353 3.27873 6.0287 3.24307C5.93953 2.61892 5.72554 2.51192 5.27972 1.97693C5.45804 2.03043 5.63637 2.08393 5.77904 2.19093C5.95737 2.33359 6.10003 2.54759 6.27836 2.70808C6.38535 2.79725 6.56368 2.81508 6.70635 2.86858C6.74201 2.70808 6.83118 2.54759 6.79551 2.40492C6.61718 1.7986 6.15353 1.45978 5.54721 1.33495C4.94089 1.21012 4.37024 1.28145 3.88875 1.72727C3.81742 1.78077 3.78175 1.86994 3.79959 1.8521C4.19191 2.10176 4.6199 2.28009 4.92306 2.60109C5.06572 2.76158 5.17272 2.92208 5.24405 3.11824C5.22622 3.11824 5.19055 3.11824 5.15489 3.11824C5.04789 3.11824 4.92306 3.11824 4.81606 3.13607C4.69123 2.85075 4.47724 2.61892 4.20974 2.47625C3.58559 2.17309 2.55128 2.31576 2.03413 2.77941C1.74881 3.02907 1.62398 3.33223 1.74881 3.68889C1.78447 3.79589 1.9628 3.92072 2.08763 3.93855C2.46212 3.99205 2.67612 3.74239 2.89011 3.4749C2.92578 3.43923 2.92578 3.3679 2.94361 3.27873H2.30162C2.89011 2.76158 3.47859 2.85074 3.99575 3.3679C3.88875 3.4214 3.78175 3.45706 3.69259 3.5284C3.51426 3.38573 3.3716 3.3679 3.2111 3.61756C3.1041 3.77806 2.97927 3.92072 2.83661 4.06338C2.44429 4.45571 1.94497 4.4557 1.51698 4.08121C1.44565 4.00988 1.24948 3.97422 1.19599 4.02772C1.03549 4.13471 0.821495 4.31304 0.821495 4.4557C0.821495 4.65187 0.981991 4.88369 1.14249 5.00852C1.49914 5.25819 1.94497 5.22252 2.31946 5.02636C2.37296 5.00852 2.40862 4.97286 2.46212 4.95503C2.33729 5.24035 2.26596 5.54351 2.24813 5.8645C2.24813 5.93583 2.24813 6.00717 2.24813 6.0785C2.24813 7.70129 3.56776 9.00309 5.17272 9.00309C6.26052 8.93176 7.20567 8.34327 7.70499 7.46946Z"
          fill="#1B70F1"/>
    <path d="M15.6561 3.72445L15.0498 6.16756C14.9428 6.11406 14.8179 6.06056 14.6396 6.00706C14.4613 5.97139 14.2829 5.95356 14.1046 5.95356C13.9085 5.95356 13.7123 5.98923 13.534 6.06056C13.3556 6.13189 13.213 6.23889 13.0881 6.36372C12.9633 6.48855 12.8741 6.64904 12.8028 6.82737C12.7315 7.0057 12.6958 7.20186 12.6958 7.41586V11.1073H10.4667V3.74228H12.571L12.6245 4.86575C12.678 4.77659 12.7493 4.68743 12.8028 4.59826C13.0525 4.27727 13.3556 4.02761 13.6945 3.84928C14.0333 3.67095 14.4078 3.58179 14.7823 3.58179C14.9428 3.58179 15.1033 3.59962 15.2459 3.61745C15.4064 3.65312 15.5312 3.68878 15.6561 3.72445Z"
          fill="#1B70F1"/>
    <path d="M24.3062 3.7422L21.1676 11.0893L19.9015 14.2814H17.708L19.1525 10.8932L15.8713 3.7422H18.3679L19.9193 7.43361C20.0085 7.61194 20.0798 7.80809 20.1512 8.02209C20.1868 8.09342 20.2047 8.16475 20.2225 8.23609C20.2938 8.03992 20.3473 7.84376 20.4365 7.61194L21.7918 3.72437H24.3062V3.7422Z"
          fill="#1B70F1"/>
    <path d="M32.6163 5.4364C32.331 4.86574 31.9387 4.41992 31.4572 4.09893C30.9757 3.77794 30.4051 3.59961 29.7809 3.59961C29.3529 3.59961 28.9606 3.67094 28.5683 3.83144C28.1759 3.99193 27.8728 4.18809 27.6231 4.43775C27.5875 4.47342 27.5518 4.50909 27.534 4.54475L27.4983 3.74227H25.394V14.1388H27.6231V10.3404C27.8906 10.6079 28.1938 10.8219 28.5861 10.9646C28.9606 11.1251 29.3529 11.1964 29.7809 11.1964C30.4229 11.1964 30.9935 11.0359 31.475 10.7149C31.9743 10.3939 32.3488 9.94812 32.6342 9.35963C32.9195 8.78898 33.0622 8.12916 33.0622 7.38018C33.0265 6.66686 32.8838 6.00705 32.6163 5.4364ZM30.6547 8.45015C30.512 8.73548 30.3159 8.94948 30.0662 9.12781C29.8166 9.2883 29.5312 9.35963 29.1924 9.35963C28.8536 9.35963 28.5504 9.2883 28.3008 9.12781C28.0511 8.96731 27.8549 8.75331 27.7123 8.45015C27.5696 8.14699 27.4983 7.826 27.4983 7.41585C27.4983 7.02352 27.5696 6.6847 27.7123 6.39937C27.8549 6.11405 28.0511 5.88222 28.3008 5.72172C28.5504 5.56123 28.8536 5.4899 29.1924 5.4899C29.5312 5.4899 29.8344 5.56123 30.0662 5.72172C30.3159 5.88222 30.4942 6.11405 30.6369 6.39937C30.7795 6.6847 30.8509 7.02352 30.8509 7.41585C30.8687 7.80817 30.7974 8.14699 30.6547 8.45015Z"
          fill="#1B70F1"/>
    <path d="M38.7508 3.74231V3.93848C38.6082 4.11681 38.4833 4.29513 38.3763 4.4913C38.1445 4.86579 37.9662 5.25811 37.8414 5.6861H37.3242V11.1073H35.1129V5.6861H33.8111V3.74231H35.1129V1.8877H37.3242V3.74231H38.7508Z"
          fill="#1B70F1"/>
    <path d="M43.404 11.2321C42.6372 11.2321 41.9596 11.0716 41.3533 10.7328C40.7648 10.3939 40.2833 9.94812 39.9445 9.37746C39.6056 8.80681 39.4273 8.147 39.4273 7.41585C39.4273 6.6847 39.6056 6.02488 39.9445 5.45423C40.2833 4.88358 40.7648 4.43776 41.3533 4.09893C41.9417 3.76011 42.6372 3.59961 43.404 3.59961C44.1709 3.59961 44.8485 3.76011 45.4548 4.09893C46.0433 4.43776 46.5248 4.88358 46.8636 5.45423C47.2024 6.02488 47.3808 6.6847 47.3808 7.41585C47.3808 8.147 47.2024 8.80681 46.8636 9.37746C46.5248 9.94812 46.0611 10.3939 45.4548 10.7328C44.8485 11.0716 44.1709 11.2321 43.404 11.2321ZM43.404 9.32396C43.7429 9.32396 44.0282 9.2348 44.2957 9.0743C44.5453 8.91381 44.7593 8.68198 44.902 8.39666C45.0447 8.11133 45.116 7.79034 45.116 7.41585C45.1338 7.04136 45.0625 6.72036 44.902 6.41721C44.7593 6.13188 44.5453 5.90005 44.2957 5.73956C44.046 5.57906 43.7429 5.4899 43.404 5.4899C43.0652 5.4899 42.7799 5.57906 42.5124 5.73956C42.2449 5.90005 42.0487 6.13188 41.8882 6.41721C41.7456 6.70253 41.6742 7.04136 41.6742 7.41585C41.6564 7.79034 41.7277 8.11133 41.8882 8.39666C42.0309 8.68198 42.2449 8.91381 42.5124 9.0743C42.7799 9.2348 43.0652 9.32396 43.404 9.32396Z"
          fill="#1B70F1"/>
    <path d="M55.5684 7.02336C55.3901 6.68454 55.1404 6.39921 54.8373 6.16739C54.6233 6.00689 54.3915 5.89989 54.1418 5.81073C54.4628 5.66807 54.7303 5.45407 54.9265 5.18658C55.1939 4.81209 55.3366 4.34843 55.3366 3.79561C55.3366 3.29629 55.2296 2.8683 54.9799 2.51165C54.7481 2.15499 54.3915 1.88749 53.9278 1.69133C53.4642 1.49517 52.9113 1.40601 52.2337 1.40601H47.9538V3.81344C48.1321 4.02744 48.2926 4.25927 48.4353 4.50893C48.9524 5.36491 49.2199 6.34571 49.2199 7.41569C49.2199 8.48566 48.9703 9.46646 48.4531 10.3224C48.3105 10.5721 48.15 10.8039 47.9538 11.0179V11.0893H52.3764C52.8757 11.0893 53.3572 11.0358 53.7673 10.9109C54.1953 10.7861 54.552 10.6078 54.873 10.3581C55.1939 10.1085 55.4258 9.80529 55.5863 9.4308C55.7468 9.07414 55.8359 8.64616 55.8359 8.14684C55.8359 7.73668 55.7468 7.36219 55.5684 7.02336ZM50.1651 3.36762H51.8057C52.2159 3.36762 52.519 3.45679 52.7152 3.63512C52.9113 3.81344 53.0183 4.04527 53.0183 4.3306C53.0183 4.52676 52.9827 4.70509 52.8935 4.84775C52.8043 4.99041 52.6795 5.09741 52.5012 5.18658C52.3229 5.25791 52.1267 5.29357 51.877 5.29357H50.1472V3.36762H50.1651ZM53.3572 8.64615C53.2502 8.80665 53.1253 8.93148 52.9292 9.00281C52.7508 9.09198 52.519 9.12764 52.2694 9.12764H50.1472V7.0412H52.198C52.4655 7.0412 52.6973 7.07686 52.8935 7.14819C53.0897 7.21953 53.2323 7.34435 53.3393 7.48702C53.4463 7.62968 53.4998 7.80801 53.4998 8.022C53.5177 8.2895 53.4642 8.48566 53.3572 8.64615Z"
          fill="white"/>
    <path d="M62.6112 3.72444L62.0049 6.16755C61.8979 6.11405 61.7731 6.06055 61.5948 6.00705C61.4164 5.95355 61.2559 5.95355 61.0598 5.95355C60.8636 5.95355 60.6674 5.98922 60.4891 6.06055C60.3108 6.13188 60.1681 6.23888 60.0433 6.36371C59.9185 6.48854 59.8293 6.64903 59.758 6.82736C59.6866 7.00569 59.651 7.20185 59.651 7.41585V11.1073H57.4219V3.74227H59.5261L59.5796 4.86575C59.6331 4.77658 59.6866 4.68741 59.758 4.61608C60.0076 4.29509 60.3108 4.04543 60.6496 3.8671C60.9884 3.68877 61.3629 3.59961 61.7374 3.59961C61.8979 3.59961 62.0584 3.61744 62.2011 3.63527C62.3437 3.65311 62.4864 3.68877 62.6112 3.72444Z"
          fill="white"/>
    <path d="M68.3891 3.74228V4.63393C68.2464 4.4556 68.1038 4.2951 67.9254 4.17027C67.7114 3.99194 67.4439 3.84928 67.1586 3.74228C66.8733 3.63528 66.5523 3.58179 66.1956 3.58179C65.5537 3.58179 64.983 3.74228 64.4837 4.06327C63.9844 4.38427 63.592 4.84792 63.3067 5.41857C63.0214 5.98922 62.8787 6.64904 62.8787 7.39802C62.8787 8.12917 63.0214 8.78899 63.3067 9.35964C63.592 9.93029 63.9844 10.3939 64.4658 10.7149C64.9473 11.0359 65.5002 11.1964 66.1243 11.1964C66.4631 11.1964 66.7663 11.1429 67.0695 11.0538C67.3726 10.9468 67.6401 10.8219 67.8719 10.6436C68.0503 10.5188 68.2108 10.3583 68.3356 10.2156V11.0894H70.5825V3.74228H68.3891ZM68.2108 8.45016C68.0681 8.73549 67.8719 8.96732 67.6223 9.12782C67.3726 9.28831 67.0695 9.35964 66.7306 9.35964C66.3918 9.35964 66.1065 9.28831 65.8746 9.12782C65.625 8.96732 65.4288 8.75332 65.304 8.45016C65.1613 8.16484 65.09 7.82601 65.09 7.41586C65.09 7.02353 65.1613 6.68471 65.304 6.38155C65.4467 6.09622 65.625 5.8644 65.8746 5.7039C66.1065 5.5434 66.4096 5.47207 66.7306 5.47207C67.0695 5.47207 67.3726 5.5434 67.6223 5.7039C67.8719 5.8644 68.0681 6.09622 68.2108 6.38155C68.3534 6.66688 68.4248 7.02353 68.4248 7.41586C68.4248 7.80818 68.3534 8.147 68.2108 8.45016Z"
          fill="white"/>
    <path d="M73.7746 2.29776C73.3645 2.29776 73.0256 2.19076 72.7938 1.9946C72.562 1.79844 72.4371 1.51311 72.4371 1.13862C72.4371 0.799793 72.562 0.532302 72.7938 0.318307C73.0256 0.104312 73.3645 -0.00268555 73.7568 -0.00268555C74.1669 -0.00268555 74.4879 0.104311 74.7198 0.300473C74.9516 0.496635 75.0586 0.78196 75.0586 1.13862C75.0586 1.47744 74.9338 1.76277 74.7019 1.97677C74.4701 2.19076 74.1848 2.29776 73.7746 2.29776ZM72.669 11.1072V3.74222H74.8981V11.0894H72.669V11.1072Z"
          fill="white"/>
    <path d="M83.9049 6.57771V11.0894H81.6758V6.77387C81.6758 6.47071 81.6401 6.23888 81.5509 6.04272C81.4618 5.84656 81.3369 5.7039 81.1765 5.61473C80.9981 5.52557 80.802 5.47207 80.5523 5.48991C80.3561 5.48991 80.1778 5.52557 80.0173 5.57907C79.8568 5.63257 79.7142 5.72173 79.5893 5.84656C79.4645 5.95356 79.3753 6.09622 79.304 6.23889C79.2327 6.38155 79.197 6.54204 79.197 6.72037V11.1251H76.9857V3.74228H79.09L79.1257 4.65176C79.1613 4.59826 79.2148 4.54476 79.2505 4.49126C79.518 4.22377 79.839 3.99194 80.1956 3.83145C80.5701 3.67095 80.9446 3.58179 81.3548 3.58179C81.9076 3.58179 82.3713 3.68878 82.7457 3.92061C83.1202 4.15244 83.4056 4.49126 83.6017 4.93708C83.8157 5.38291 83.9049 5.93573 83.9049 6.57771Z"
          fill="white"/>
    <path d="M88.2371 11.2321C87.5238 11.2321 86.8818 11.1251 86.329 10.8933C85.7761 10.6614 85.3482 10.3583 85.0272 9.96595L86.3646 8.80681C86.65 9.09214 86.9709 9.30613 87.3276 9.43096C87.6843 9.57362 88.0231 9.62712 88.3441 9.62712C88.4689 9.62712 88.5937 9.60929 88.6829 9.59146C88.7899 9.55579 88.8612 9.52013 88.9326 9.46663C89.0039 9.41313 89.0574 9.35963 89.0931 9.2883C89.1287 9.21697 89.1466 9.14564 89.1466 9.03864C89.1466 8.86031 89.0574 8.71764 88.8969 8.61065C88.8077 8.55715 88.6829 8.50365 88.4867 8.45015C88.2906 8.37882 88.0409 8.30749 87.7378 8.23616C87.3098 8.12916 86.9353 7.9865 86.6143 7.84384C86.2933 7.68334 86.0258 7.50501 85.8296 7.30885C85.6513 7.11269 85.5086 6.89869 85.4017 6.66686C85.2947 6.43504 85.2412 6.16754 85.2412 5.86438C85.2412 5.52556 85.3303 5.20457 85.4908 4.93708C85.6513 4.65175 85.8653 4.41992 86.1328 4.22376C86.4003 4.0276 86.7213 3.8671 87.0779 3.76011C87.4346 3.65311 87.8091 3.59961 88.1836 3.59961C88.5937 3.59961 88.9861 3.65311 89.3427 3.74227C89.7172 3.83144 90.056 3.95627 90.377 4.1346C90.698 4.29509 90.9833 4.49125 91.233 4.72308L90.0739 6.02488C89.9134 5.86439 89.7172 5.72172 89.521 5.59689C89.3071 5.47206 89.0931 5.36506 88.8791 5.29373C88.6651 5.2224 88.4511 5.18674 88.2727 5.18674C88.1301 5.18674 88.0053 5.20457 87.8983 5.2224C87.7913 5.24024 87.7021 5.2759 87.6308 5.3294C87.5594 5.3829 87.5059 5.4364 87.4703 5.50773C87.4346 5.57906 87.4168 5.65039 87.4168 5.75739C87.4168 5.84655 87.4346 5.93572 87.4881 6.02488C87.5416 6.11405 87.6129 6.18538 87.7021 6.23888C87.7913 6.29238 87.9339 6.36371 88.1479 6.41721C88.3441 6.48854 88.6294 6.5777 88.9861 6.66686C89.414 6.79169 89.7885 6.91653 90.1095 7.07702C90.4305 7.21968 90.6802 7.39802 90.8585 7.61201C91.0012 7.77251 91.1082 7.95083 91.1973 8.16483C91.2687 8.37882 91.3043 8.59282 91.3043 8.84248C91.3043 9.30613 91.1795 9.73412 90.912 10.0908C90.6445 10.4474 90.2879 10.7506 89.8242 10.9468C89.3606 11.1429 88.8256 11.2321 88.2371 11.2321Z"
          fill="white"/>
</svg>
